<?xml version="1.0" standalone="no"?><!DOCTYPE svg PUBLIC "-//W3C//DTD SVG 1.1//EN" "http://www.w3.org/Graphics/SVG/1.1/DTD/svg11.dtd"><svg t="1523935360663" class="icon" style="" viewBox="0 0 1024 1024" version="1.1" xmlns="http://www.w3.org/2000/svg" p-id="1901" xmlns:xlink="http://www.w3.org/1999/xlink" width="200" height="200"><defs><style type="text/css"></style></defs><path d="M512 32a480 480 0 1 0 480 480A480.51428531 480.51428531 0 0 0 512 32z m0 925.71428531a445.31428594 445.31428594 0 0 1-366.0571425-191.88571406c-11.42857125-70.8571425 59.88571406-144.40000031 89.82857062-171.77142844A298.28571469 298.28571469 0 0 0 317.71428594 720.39999969l15.42857156-17.14285688a274.28571469 274.28571469 0 0 1-51.77142937-342.28571437 11.42857125 11.42857125 0 0 0-1.59999938-13.77142875A66.68571469 66.68571469 0 0 1 260.57142875 300.57142813a70.11428531 70.11428531 0 0 1 71.42857125-68.57142844 72.22857188 72.22857188 0 0 1 51.02857125 20.62857187 11.42857125 11.42857125 0 0 0 13.08571406 1.99999969 274.28571469 274.28571469 0 0 1 247.77142875 2.3428575l0.68571469-1.37142844a11.9428575 11.9428575 0 0 0 7.59999937-3.5428575l0.62857219-0.68571468a66.57142875 66.57142875 0 0 1 94.51428563-4.62857063 73.65714281 73.65714281 0 0 1 10.17142875 97.14285656c-1.08571406 1.48571437-2.17142813 2.85714281-3.37142907 4.22857125a11.42857125 11.42857125 0 0 0 1.2 16.11428625l0.74285719 0.57142875a274.28571469 274.28571469 0 0 1-56.68571437 341.14285688l15.08571469 17.14285687a297.14285719 297.14285719 0 0 0 87.02857124-134.79999937C826.28571406 612.97142844 884.62857125 677.71428594 889.14285687 749.48571406A445.71428531 445.71428531 0 0 1 512 957.71428531z m296.17142812-394.28571375a296.51428594 296.51428594 0 0 0-31.08571406-207.42857156 96.11428594 96.11428594 0 0 0 16.7428575-61.42857188 95.08571437 95.08571437 0 0 0-31.25714343-64.45714218 89.14285687 89.14285687 0 0 0-121.08571407 0.68571375A297.88571437 297.88571437 0 0 0 517.71428563 203.42857156a292.62857156 292.62857156 0 0 0-124.68571407 27.54285656A95.14285687 95.14285687 0 0 0 332 209.14285719 92.97142875 92.97142875 0 0 0 237.71428531 300.57142813a89.20000031 89.20000031 0 0 0 19.94285719 56.22857156 295.60000031 295.60000031 0 0 0-28.57142813 212.85714281c-21.02857125 17.82857156-93.71428594 84.51428531-105.42857156 160.34285719A445.71428531 445.71428531 0 1 1 907.20000031 717.71428531c-18.0571425-78.17142844-83.88571406-140.91428531-99.02857218-154.28571375zM443.42857156 380.57142875a28.57142813 28.57142813 0 1 0-28.57142906 28.57142812 28.57142813 28.57142813 0 0 0 28.57142906-28.57142812z m182.85714282-28.57142906a28.57142813 28.57142813 0 1 0 28.57142812 28.57142906 28.57142813 28.57142813 0 0 0-28.57142813-28.57142906z m1.71428531 195.02857219c-30.0571425 11.42857125-54.11428594 12.57142875-71.54285719 3.88571343A44.68571438 44.68571438 0 0 1 534.8571425 527.02857125a37.99999969 37.99999969 0 0 0 28.57142906-35.02857094c0-20.51428594-19.2-37.1428575-42.85714312-37.1428575S477.71428531 471.48571438 477.71428531 492.00000031c0 17.82857156 14.51428594 32.74285687 33.88571438 36.28571438a44.97142875 44.97142875 0 0 1-20.85714282 22.39999968c-17.14285687 8.91428531-41.59999969 7.65714281-71.88571406-3.6571425a11.42857125 11.42857125 0 1 0-7.99999968 21.37142813 153.42857156 153.42857156 0 0 0 53.14285687 11.02857187 79.99999969 79.99999969 0 0 0 37.1428575-8.4 66.22857188 66.22857188 0 0 0 22.28571375-18.34285781 66.22857188 66.22857188 0 0 0 22.28571469 18.34285781 79.99999969 79.99999969 0 0 0 37.14285656 8.4 153.42857156 153.42857156 0 0 0 53.14285781-11.02857187 11.42857125 11.42857125 0 1 0-8.00000062-21.37142813z" p-id="1902"></path></svg>