<svg id="图层_1" data-name="图层 1" xmlns="http://www.w3.org/2000/svg" viewBox="0 0 594.9 75.42"><defs><style>.cls-1{fill:#288ce9;}</style></defs><title>logo-1</title><path class="cls-1" d="M462.52.53h30.07a87.17,87.17,0,0,1,14.24,1.05c3.16,1.06,6.32,2.11,8.43,4.22A22.11,22.11,0,0,1,520,13.18c1,3.17,1.58,7.39,1.58,13.19v7.38H502.08V30.06c0-5.27-1.06-9-2.64-10.55-1.58-2.11-5.27-2.63-10.55-2.63h-5.8V63.29A11.94,11.94,0,0,1,471,75.42h-8.44Z"/><rect class="cls-1" x="76.66" y="30.47" width="42.19" height="14.24"/><rect class="cls-1" x="76.84" y="0.59" width="42.19" height="14.24"/><rect class="cls-1" x="76.47" y="60.34" width="42.19" height="14.24"/><rect class="cls-1" x="130.48" y="30.44" width="42.19" height="14.24"/><rect class="cls-1" x="130.66" y="0.57" width="42.19" height="14.24"/><rect class="cls-1" x="130.29" y="60.32" width="42.19" height="14.24"/><path class="cls-1" d="M15.82.53V74.36H0V.53Zm.53,36.39L44.3.53H64.87L34.28,36.92,63.81,74.36H43.25Z"/><path class="cls-1" d="M200.94,48.52V74.36H185.12V.53H222q10.29,0,14.24,1.58c4.75,1.58,8.44,4.75,11.61,10A25.15,25.15,0,0,1,251,24.79a23.67,23.67,0,0,1-2.11,10.55c-1.58,3.16-3.16,6.32-5.8,8.43-2.11,2.11-4.75,3.17-6.86,4.22a48.24,48.24,0,0,1-10,1.06H200.94Zm0-13.18H222q5.53,0,7.91-1.59c2.11-1.58,3.7-5.27,3.7-9.49,0-4.75-1.59-7.91-5.28-9.49a14,14,0,0,0-5.8-1.06H200.94Z"/><path class="cls-1" d="M273.19.53,289.54,55.9,305.36.53h17.4l15.3,55.37L354.41.53h16.35L347,74.36H329.09L313.8,21.1,298.5,74.36H280.57L256.84.53Z"/><path class="cls-1" d="M412.42,0c7.39,0,13.71,1.05,19.52,3.69A26.34,26.34,0,0,1,445.65,19c2.11,5.27,3.16,12.13,3.16,19.51S447.76,52.74,445.12,58a26.92,26.92,0,0,1-14.77,13.72c-4.74,2.11-10.54,2.63-16.87,2.63-8.44,0-15.83-1.58-21.63-4.74a26,26,0,0,1-11.6-12.13A45.09,45.09,0,0,1,376,37.44c0-14.23,3.69-24.26,10.55-30.06C392.38,2.64,400.82,0,412.42,0Zm0,12.66c-7.38,0-12.13,2.11-15.29,6.85-2.64,3.7-3.69,9.5-3.69,17.93s1.58,14.77,4.74,19,7.91,5.8,14.77,5.8q9.49,0,14.24-6.33t4.75-19c0-7.91-1.06-13.71-3.7-17.93C425.08,15.29,419.81,12.66,412.42,12.66Z"/><path class="cls-1" d="M545.85.53V74.36H530V.53Zm.53,36.39,28-36.39H594.9L563.78,36.92l29.54,37.44H572.75Z"/></svg>