<?xml version="1.0" standalone="no"?><!DOCTYPE svg PUBLIC "-//W3C//DTD SVG 1.1//EN" "http://www.w3.org/Graphics/SVG/1.1/DTD/svg11.dtd"><svg t="1564379471135" class="icon" viewBox="0 0 1024 1024" version="1.1" xmlns="http://www.w3.org/2000/svg" p-id="3667" width="32" height="32" xmlns:xlink="http://www.w3.org/1999/xlink"><defs><style type="text/css"></style></defs><path d="M511.921428 984.613552a469.305452 469.305452 0 0 1-334.059151-138.436444 469.581144 469.581144 0 0 1-131.150316-250.60344c39.581401 220.828774 233.156116 388.961115 465.209467 388.961115 232.998578 0 427.16406-169.35326 465.760849-391.324184a469.423606 469.423606 0 0 1-131.54416 252.966509A469.423606 469.423606 0 0 1 511.921428 984.613552z m465.524542-555.124233c-35.052186-198.734081-194.835018-354.97231-395.302016-384.943898a468.950992 468.950992 0 0 1 263.994163 133.237693 468.596532 468.596532 0 0 1 131.307853 251.706205z m-930.537086-2.441837a469.699297 469.699297 0 0 1 130.953393-249.303753 468.990377 468.990377 0 0 1 261.079711-132.765079c-198.340237 30.877432-356.153844 185.461512-392.033104 382.029447z" fill="#ffffff" p-id="3668"></path><path d="M511.921428 1023.998031a508.453625 508.453625 0 0 1-361.943363-149.976096A508.847469 508.847469 0 0 1 0.001969 511.921034c0-136.742911 53.326585-265.333235 150.015481-362.022131A508.571778 508.571778 0 0 1 511.921428 0.001575c136.861065 0 265.37262 53.247816 362.061516 149.897328A508.571778 508.571778 0 0 1 1023.998425 511.921034c0 136.82168-53.326585 265.412004-150.015481 362.100901A508.532394 508.532394 0 0 1 511.921428 1023.998031z m0-945.266882c-238.90625 0-433.22927 194.32302-433.22927 433.22927 0 238.827481 194.32302 433.189885 433.22927 433.189885 238.985019 0 433.386808-194.362404 433.386807-433.22927s-194.401789-433.22927-433.386807-433.229269z" fill="#ffffff" p-id="3669"></path><path d="M383.094797 346.781913v327.79702a36.942641 36.942641 0 0 0 56.516727 31.507583l262.615707-163.878817a36.942641 36.942641 0 0 0 0-62.660707l-262.615707-163.878817a36.942641 36.942641 0 0 0-56.516727 31.507583z" fill="#ffffff" p-id="3670"></path></svg>